<svg width="35" height="41" viewBox="0 0 35 41" fill="none" xmlns="http://www.w3.org/2000/svg">
<path d="M34.1007 8.69487L26.0764 0.212118C26.0167 0.144203 25.9442 0.0902499 25.8636 0.0537267C25.783 0.0172036 25.6961 -0.00108084 25.6084 4.93754e-05H6.12287C5.4394 0.00376425 4.78492 0.292436 4.30162 0.803348C3.81833 1.31426 3.54526 2.00614 3.54175 2.72867V16.2587C3.54175 16.4461 3.6122 16.6259 3.7376 16.7585C3.863 16.8911 4.03309 16.9655 4.21043 16.9655C4.38778 16.9655 4.55786 16.8911 4.68326 16.7585C4.80867 16.6259 4.87912 16.4461 4.87912 16.2587V2.72867C4.87912 2.37995 5.01016 2.04552 5.24341 1.79894C5.47665 1.55237 5.79301 1.41384 6.12287 1.41384H24.9397V9.18969C24.9397 9.37717 25.0101 9.55698 25.1355 9.68954C25.2609 9.82211 25.431 9.89659 25.6084 9.89659H32.9639V38.2714C32.9639 38.6201 32.8329 38.9545 32.5996 39.2011C32.3664 39.4477 32.05 39.5862 31.7201 39.5862H6.12287C5.79301 39.5862 5.47665 39.4477 5.24341 39.2011C5.01016 38.9545 4.87912 38.6201 4.87912 38.2714V34.6379C4.87912 34.4505 4.80867 34.2707 4.68326 34.1381C4.55786 34.0055 4.38778 33.931 4.21043 33.931C4.03309 33.931 3.863 34.0055 3.7376 34.1381C3.6122 34.2707 3.54175 34.4505 3.54175 34.6379V38.2714C3.54526 38.9939 3.81833 39.6858 4.30162 40.1967C4.78492 40.7076 5.4394 40.9963 6.12287 41H31.7201C32.4036 40.9963 33.0581 40.7076 33.5414 40.1967C34.0247 39.6858 34.2978 38.9939 34.3013 38.2714V9.18969C34.3023 9.09698 34.285 9.00506 34.2505 8.91984C34.2159 8.83462 34.1649 8.75799 34.1007 8.69487ZM26.277 2.41763L32.0144 8.4828H26.277V2.41763Z" fill="#096BEE"/>
<path d="M26.7859 18.3793H3.03422C1.83767 18.3793 0.867676 19.4047 0.867676 20.6696V30.2268C0.867676 31.4918 1.83767 32.5172 3.03422 32.5172H26.7859C27.9825 32.5172 28.9524 31.4918 28.9524 30.2268V20.6696C28.9524 19.4047 27.9825 18.3793 26.7859 18.3793Z" fill="#096BEE"/>
<path d="M6.02108 29.15H3.66668V21.8773H6.09566C6.80825 21.8773 7.42023 22.0229 7.9316 22.3141C8.44296 22.6029 8.83477 23.0184 9.10702 23.5605C9.38164 24.1003 9.51895 24.7478 9.51895 25.503C9.51895 26.2606 9.38046 26.9116 9.10347 27.4561C8.82885 28.0006 8.43112 28.4197 7.91029 28.7132C7.38946 29.0044 6.75972 29.15 6.02108 29.15ZM4.76398 28.1912H5.96072C6.51469 28.1912 6.97516 28.0871 7.34211 27.8787C7.70906 27.668 7.98368 27.3638 8.16597 26.9661C8.34826 26.566 8.43941 26.0783 8.43941 25.503C8.43941 24.9325 8.34826 24.4483 8.16597 24.0506C7.98605 23.6529 7.71734 23.351 7.35986 23.1451C7.00238 22.9391 6.55849 22.8361 6.02819 22.8361H4.76398V28.1912ZM17.4009 25.5137C17.4009 26.2902 17.2589 26.9578 16.9748 27.5165C16.6907 28.0728 16.3013 28.5014 15.8065 28.802C15.3141 29.1003 14.7542 29.2495 14.1268 29.2495C13.4971 29.2495 12.9348 29.1003 12.44 28.802C11.9476 28.5014 11.5593 28.0717 11.2752 27.513C10.9911 26.9542 10.8491 26.2878 10.8491 25.5137C10.8491 24.7371 10.9911 24.0707 11.2752 23.5144C11.5593 22.9557 11.9476 22.5272 12.44 22.2289C12.9348 21.9282 13.4971 21.7779 14.1268 21.7779C14.7542 21.7779 15.3141 21.9282 15.8065 22.2289C16.3013 22.5272 16.6907 22.9557 16.9748 23.5144C17.2589 24.0707 17.4009 24.7371 17.4009 25.5137ZM16.3143 25.5137C16.3143 24.9218 16.2184 24.4235 16.0267 24.0186C15.8373 23.6114 15.5768 23.3037 15.2454 23.0953C14.9163 22.8846 14.5435 22.7793 14.1268 22.7793C13.7078 22.7793 13.3337 22.8846 13.0046 23.0953C12.6756 23.3037 12.4152 23.6114 12.2234 24.0186C12.034 24.4235 11.9393 24.9218 11.9393 25.5137C11.9393 26.1055 12.034 26.605 12.2234 27.0122C12.4152 27.4171 12.6756 27.7248 13.0046 27.9355C13.3337 28.1439 13.7078 28.248 14.1268 28.248C14.5435 28.248 14.9163 28.1439 15.2454 27.9355C15.5768 27.7248 15.8373 27.4171 16.0267 27.0122C16.2184 26.605 16.3143 26.1055 16.3143 25.5137ZM25.0095 24.2424H23.9016C23.8589 24.0056 23.7796 23.7973 23.6636 23.6174C23.5476 23.4374 23.4056 23.2847 23.2375 23.1593C23.0694 23.0338 22.8812 22.9391 22.6729 22.8752C22.4669 22.8112 22.2479 22.7793 22.0159 22.7793C21.5969 22.7793 21.2216 22.8846 20.8902 23.0953C20.5611 23.306 20.3007 23.615 20.1089 24.0222C19.9195 24.4294 19.8248 24.9265 19.8248 25.5137C19.8248 26.1055 19.9195 26.605 20.1089 27.0122C20.3007 27.4194 20.5623 27.7272 20.8937 27.9355C21.2252 28.1439 21.598 28.248 22.0123 28.248C22.242 28.248 22.4598 28.2173 22.6658 28.1557C22.8741 28.0918 23.0623 27.9983 23.2304 27.8752C23.3985 27.7521 23.5405 27.6017 23.6565 27.4242C23.7749 27.2442 23.8566 27.0383 23.9016 26.8063L25.0095 26.8098C24.9503 27.1673 24.8355 27.4964 24.665 27.797C24.497 28.0953 24.2803 28.3534 24.0152 28.5712C23.7524 28.7866 23.4517 28.9535 23.1132 29.0719C22.7747 29.1903 22.4053 29.2495 22.0052 29.2495C21.3755 29.2495 20.8144 29.1003 20.322 28.802C19.8296 28.5014 19.4413 28.0717 19.1572 27.513C18.8755 26.9542 18.7346 26.2878 18.7346 25.5137C18.7346 24.7371 18.8767 24.0707 19.1608 23.5144C19.4449 22.9557 19.8331 22.5272 20.3256 22.2289C20.818 21.9282 21.3779 21.7779 22.0052 21.7779C22.3911 21.7779 22.751 21.8335 23.0848 21.9448C23.421 22.0537 23.7228 22.2147 23.9903 22.4277C24.2579 22.6384 24.4792 22.8965 24.6544 23.2019C24.8296 23.5049 24.948 23.8517 25.0095 24.2424Z" fill="white"/>
</svg>
