<svg width="34" height="41" viewBox="0 0 34 41" fill="none" xmlns="http://www.w3.org/2000/svg">
<path d="M33.535 8.69487L25.5108 0.212118C25.4511 0.144203 25.3786 0.0902499 25.298 0.0537267C25.2173 0.0172036 25.1304 -0.00108084 25.0427 4.93754e-05H5.5572C4.87373 0.00376425 4.21925 0.292436 3.73595 0.803348C3.25266 1.31426 2.97959 2.00614 2.97607 2.72867V16.2587C2.97607 16.4461 3.04652 16.6259 3.17193 16.7585C3.29733 16.8911 3.46741 16.9655 3.64476 16.9655C3.82211 16.9655 3.99219 16.8911 4.11759 16.7585C4.24299 16.6259 4.31344 16.4461 4.31344 16.2587V2.72867C4.31344 2.37995 4.44448 2.04552 4.67773 1.79894C4.91098 1.55237 5.22733 1.41384 5.5572 1.41384H24.374V9.18969C24.374 9.37717 24.4444 9.55698 24.5699 9.68954C24.6953 9.82211 24.8653 9.89659 25.0427 9.89659H32.3982V38.2714C32.3982 38.6201 32.2672 38.9545 32.0339 39.2011C31.8007 39.4477 31.4843 39.5862 31.1545 39.5862H5.5572C5.22733 39.5862 4.91098 39.4477 4.67773 39.2011C4.44448 38.9545 4.31344 38.6201 4.31344 38.2714V34.6379C4.31344 34.4505 4.24299 34.2707 4.11759 34.1381C3.99219 34.0055 3.82211 33.931 3.64476 33.931C3.46741 33.931 3.29733 34.0055 3.17193 34.1381C3.04652 34.2707 2.97607 34.4505 2.97607 34.6379V38.2714C2.97959 38.9939 3.25266 39.6858 3.73595 40.1967C4.21925 40.7076 4.87373 40.9963 5.5572 41H31.1545C31.8379 40.9963 32.4924 40.7076 32.9757 40.1967C33.459 39.6858 33.7321 38.9939 33.7356 38.2714V9.18969C33.7367 9.09698 33.7194 9.00506 33.6848 8.91984C33.6503 8.83462 33.5992 8.75799 33.535 8.69487ZM25.7114 2.41763L31.4487 8.4828H25.7114V2.41763Z" fill="#C0A516"/>
<path d="M26.22 18.3793H2.4683C1.27175 18.3793 0.301758 19.4047 0.301758 20.6696V30.2268C0.301758 31.4918 1.27175 32.5172 2.4683 32.5172H26.22C27.4165 32.5172 28.3865 31.4918 28.3865 30.2268V20.6696C28.3865 19.4047 27.4165 18.3793 26.22 18.3793Z" fill="#C0A516"/>
<path d="M5.45517 29.15H3.10076V21.8773H5.52974C6.24234 21.8773 6.85431 22.0229 7.36568 22.3141C7.87704 22.6029 8.26885 23.0184 8.5411 23.5605C8.81573 24.1003 8.95304 24.7478 8.95304 25.503C8.95304 26.2606 8.81454 26.9116 8.53755 27.4561C8.26293 28.0006 7.8652 28.4197 7.34437 28.7132C6.82354 29.0044 6.1938 29.15 5.45517 29.15ZM4.19806 28.1912H5.3948C5.94878 28.1912 6.40924 28.0871 6.77619 27.8787C7.14314 27.668 7.41776 27.3638 7.60005 26.9661C7.78235 26.566 7.87349 26.0783 7.87349 25.503C7.87349 24.9325 7.78235 24.4483 7.60005 24.0506C7.42013 23.6529 7.15143 23.351 6.79395 23.1451C6.43646 22.9391 5.99257 22.8361 5.46227 22.8361H4.19806V28.1912ZM11.8537 29.15L9.83663 21.8773H10.9907L12.4077 27.5094H12.4751L13.9488 21.8773H15.0923L16.566 27.513H16.6335L18.0469 21.8773H19.2045L17.1839 29.15H16.0795L14.549 23.7026H14.4922L12.9616 29.15H11.8537ZM24.9656 24.1749C24.897 23.9594 24.8046 23.7665 24.6886 23.596C24.575 23.4232 24.4389 23.2764 24.2802 23.1557C24.1216 23.0326 23.9405 22.9391 23.7369 22.8752C23.5357 22.8112 23.3143 22.7793 23.0729 22.7793C22.6633 22.7793 22.294 22.8846 21.9649 23.0953C21.6358 23.306 21.3754 23.615 21.1836 24.0222C20.9943 24.427 20.8996 24.923 20.8996 25.5101C20.8996 26.0996 20.9954 26.5979 21.1872 27.0051C21.379 27.4123 21.6417 27.7213 21.9756 27.932C22.3094 28.1427 22.6893 28.248 23.1155 28.248C23.5108 28.248 23.8553 28.1675 24.1488 28.0066C24.4448 27.8456 24.6732 27.6183 24.8342 27.3247C24.9976 27.0288 25.0792 26.6808 25.0792 26.2807L25.3633 26.334H23.2824V25.4284H26.141V26.2558C26.141 26.8666 26.0108 27.3969 25.7504 27.8468C25.4924 28.2942 25.1349 28.6398 24.678 28.8837C24.2234 29.1275 23.7026 29.2495 23.1155 29.2495C22.4573 29.2495 21.8797 29.0979 21.3825 28.7949C20.8877 28.4919 20.5018 28.0622 20.2248 27.5058C19.9479 26.9471 19.8094 26.2843 19.8094 25.5172C19.8094 24.9372 19.8898 24.4164 20.0508 23.9547C20.2118 23.4931 20.4379 23.1013 20.7291 22.7793C21.0227 22.4549 21.3671 22.2076 21.7625 22.0371C22.1602 21.8643 22.5946 21.7779 23.0657 21.7779C23.4587 21.7779 23.8245 21.8359 24.1631 21.9519C24.504 22.0679 24.807 22.2324 25.0721 22.4455C25.3397 22.6585 25.561 22.9119 25.7362 23.2054C25.9114 23.4966 26.0298 23.8198 26.0913 24.1749H24.9656Z" fill="white"/>
</svg>
