<svg width="35" height="41" viewBox="0 0 35 41" fill="none" xmlns="http://www.w3.org/2000/svg">
<path d="M33.9691 8.69487L25.9448 0.212118C25.8851 0.144203 25.8126 0.0902499 25.732 0.0537267C25.6514 0.0172036 25.5645 -0.00108084 25.4768 4.93754e-05H5.99128C5.30781 0.00376425 4.65333 0.292436 4.17003 0.803348C3.68674 1.31426 3.41367 2.00614 3.41016 2.72867V16.2587C3.41016 16.4461 3.48061 16.6259 3.60601 16.7585C3.73141 16.8911 3.9015 16.9655 4.07884 16.9655C4.25619 16.9655 4.42627 16.8911 4.55167 16.7585C4.67708 16.6259 4.74753 16.4461 4.74753 16.2587V2.72867C4.74753 2.37995 4.87856 2.04552 5.11181 1.79894C5.34506 1.55237 5.66142 1.41384 5.99128 1.41384H24.8081V9.18969C24.8081 9.37717 24.8785 9.55698 25.0039 9.68954C25.1293 9.82211 25.2994 9.89659 25.4768 9.89659H32.8323V38.2714C32.8323 38.6201 32.7013 38.9545 32.468 39.2011C32.2348 39.4477 31.9184 39.5862 31.5885 39.5862H5.99128C5.66142 39.5862 5.34506 39.4477 5.11181 39.2011C4.87856 38.9545 4.74753 38.6201 4.74753 38.2714V34.6379C4.74753 34.4505 4.67708 34.2707 4.55167 34.1381C4.42627 34.0055 4.25619 33.931 4.07884 33.931C3.9015 33.931 3.73141 34.0055 3.60601 34.1381C3.48061 34.2707 3.41016 34.4505 3.41016 34.6379V38.2714C3.41367 38.9939 3.68674 39.6858 4.17003 40.1967C4.65333 40.7076 5.30781 40.9963 5.99128 41H31.5885C32.272 40.9963 32.9265 40.7076 33.4098 40.1967C33.8931 39.6858 34.1662 38.9939 34.1697 38.2714V9.18969C34.1707 9.09698 34.1534 9.00506 34.1189 8.91984C34.0843 8.83462 34.0333 8.75799 33.9691 8.69487ZM26.1455 2.41763L31.8828 8.4828H26.1455V2.41763Z" fill="#58B6EB"/>
<path d="M26.6541 18.3793H2.90238C1.70583 18.3793 0.73584 19.4047 0.73584 20.6696V30.2268C0.73584 31.4918 1.70583 32.5172 2.90238 32.5172H26.6541C27.8506 32.5172 28.8206 31.4918 28.8206 30.2268V20.6696C28.8206 19.4047 27.8506 18.3793 26.6541 18.3793Z" fill="#58B6EB"/>
<path d="M6.63215 21.7273V29H5.53485V21.7273H6.63215ZM9.03016 21.7273H10.3618L12.6772 27.3807H12.7624L15.0777 21.7273H16.4094V29H15.3654V23.7372H15.2979L13.153 28.9893H12.2866L10.1417 23.7337H10.0742V29H9.03016V21.7273ZM23.7266 24.0249C23.658 23.8094 23.5657 23.6165 23.4497 23.446C23.336 23.2732 23.1999 23.1264 23.0413 23.0057C22.8827 22.8826 22.7015 22.7891 22.4979 22.7251C22.2967 22.6612 22.0754 22.6293 21.8339 22.6293C21.4243 22.6293 21.055 22.7346 20.7259 22.9453C20.3969 23.156 20.1364 23.465 19.9447 23.8722C19.7553 24.277 19.6606 24.773 19.6606 25.3601C19.6606 25.9496 19.7565 26.4479 19.9482 26.8551C20.14 27.2623 20.4028 27.5713 20.7366 27.782C21.0704 27.9927 21.4504 28.098 21.8765 28.098C22.2719 28.098 22.6163 28.0175 22.9099 27.8565C23.2058 27.6955 23.4343 27.4683 23.5953 27.1747C23.7586 26.8788 23.8403 26.5308 23.8403 26.1307L24.1244 26.1839H22.0434V25.2784H24.9021V26.1058C24.9021 26.7166 24.7719 27.2469 24.5114 27.6967C24.2534 28.1442 23.8959 28.4898 23.439 28.7337C22.9845 28.9775 22.4636 29.0994 21.8765 29.0994C21.2184 29.0994 20.6407 28.9479 20.1435 28.6449C19.6488 28.3419 19.2629 27.9122 18.9859 27.3558C18.7089 26.7971 18.5704 26.1342 18.5704 25.3672C18.5704 24.7872 18.6509 24.2663 18.8119 23.8047C18.9729 23.343 19.1989 22.9512 19.4901 22.6293C19.7837 22.3049 20.1282 22.0575 20.5235 21.8871C20.9212 21.7143 21.3557 21.6278 21.8268 21.6278C22.2198 21.6278 22.5855 21.6858 22.9241 21.8018C23.265 21.9179 23.568 22.0824 23.8332 22.2955C24.1007 22.5085 24.3221 22.7618 24.4972 23.0554C24.6724 23.3466 24.7908 23.6697 24.8524 24.0249H23.7266Z" fill="white"/>
</svg>
