<svg width="34" height="41" viewBox="0 0 34 41" fill="none" xmlns="http://www.w3.org/2000/svg">
<path d="M33.2332 8.69487L25.209 0.212118C25.1493 0.144203 25.0768 0.0902499 24.9962 0.0537267C24.9156 0.0172036 24.8286 -0.00108084 24.7409 4.93754e-05H5.25544C4.57197 0.00376425 3.91749 0.292436 3.43419 0.803348C2.9509 1.31426 2.67783 2.00614 2.67432 2.72867V16.2587C2.67432 16.4461 2.74477 16.6259 2.87017 16.7585C2.99557 16.8911 3.16566 16.9655 3.343 16.9655C3.52035 16.9655 3.69043 16.8911 3.81583 16.7585C3.94124 16.6259 4.01169 16.4461 4.01169 16.2587V2.72867C4.01169 2.37995 4.14272 2.04552 4.37597 1.79894C4.60922 1.55237 4.92558 1.41384 5.25544 1.41384H24.0722V9.18969C24.0722 9.37717 24.1427 9.55698 24.2681 9.68954C24.3935 9.82211 24.5636 9.89659 24.7409 9.89659H32.0965V38.2714C32.0965 38.6201 31.9654 38.9545 31.7322 39.2011C31.4989 39.4477 31.1826 39.5862 30.8527 39.5862H5.25544C4.92558 39.5862 4.60922 39.4477 4.37597 39.2011C4.14272 38.9545 4.01169 38.6201 4.01169 38.2714V34.6379C4.01169 34.4505 3.94124 34.2707 3.81583 34.1381C3.69043 34.0055 3.52035 33.931 3.343 33.931C3.16566 33.931 2.99557 34.0055 2.87017 34.1381C2.74477 34.2707 2.67432 34.4505 2.67432 34.6379V38.2714C2.67783 38.9939 2.9509 39.6858 3.43419 40.1967C3.91749 40.7076 4.57197 40.9963 5.25544 41H30.8527C31.5362 40.9963 32.1907 40.7076 32.674 40.1967C33.1573 39.6858 33.4303 38.9939 33.4338 38.2714V9.18969C33.4349 9.09698 33.4176 9.00506 33.3831 8.91984C33.3485 8.83462 33.2975 8.75799 33.2332 8.69487ZM25.4096 2.41763L31.1469 8.4828H25.4096V2.41763Z" fill="#989898"/>
<path d="M25.9182 18.3792H2.16654C0.969993 18.3792 0 19.4047 0 20.6696V30.2268C0 31.4917 0.969993 32.5172 2.16654 32.5172H25.9182C27.1148 32.5172 28.0848 31.4917 28.0848 30.2268V20.6696C28.0848 19.4047 27.1148 18.3792 25.9182 18.3792Z" fill="#989898"/>
</svg>
