<svg width="34" height="41" viewBox="0 0 34 41" fill="none" xmlns="http://www.w3.org/2000/svg">
<path d="M33.233 8.69487L25.2088 0.212118C25.1491 0.144203 25.0766 0.0902499 24.9959 0.0537267C24.9153 0.0172036 24.8284 -0.00108084 24.7407 4.93754e-05H5.2552C4.57172 0.00376425 3.91724 0.292436 3.43395 0.803348C2.95065 1.31426 2.67759 2.00614 2.67407 2.72867V16.2587C2.67407 16.4461 2.74452 16.6259 2.86993 16.7585C2.99533 16.8911 3.16541 16.9655 3.34276 16.9655C3.5201 16.9655 3.69019 16.8911 3.81559 16.7585C3.94099 16.6259 4.01144 16.4461 4.01144 16.2587V2.72867C4.01144 2.37995 4.14248 2.04552 4.37573 1.79894C4.60898 1.55237 4.92533 1.41384 5.2552 1.41384H24.072V9.18969C24.072 9.37717 24.1424 9.55698 24.2678 9.68954C24.3933 9.82211 24.5633 9.89659 24.7407 9.89659H32.0962V38.2714C32.0962 38.6201 31.9652 38.9545 31.7319 39.2011C31.4987 39.4477 31.1823 39.5862 30.8525 39.5862H5.2552C4.92533 39.5862 4.60898 39.4477 4.37573 39.2011C4.14248 38.9545 4.01144 38.6201 4.01144 38.2714V34.6379C4.01144 34.4505 3.94099 34.2707 3.81559 34.1381C3.69019 34.0055 3.5201 33.931 3.34276 33.931C3.16541 33.931 2.99533 34.0055 2.86993 34.1381C2.74452 34.2707 2.67407 34.4505 2.67407 34.6379V38.2714C2.67759 38.9939 2.95065 39.6858 3.43395 40.1967C3.91724 40.7076 4.57172 40.9963 5.2552 41H30.8525C31.5359 40.9963 32.1904 40.7076 32.6737 40.1967C33.157 39.6858 33.4301 38.9939 33.4336 38.2714V9.18969C33.4347 9.09698 33.4174 9.00506 33.3828 8.91984C33.3483 8.83462 33.2972 8.75799 33.233 8.69487ZM25.4094 2.41763L31.1467 8.4828H25.4094V2.41763Z" fill="#D2321F"/>
<path d="M25.9182 18.3793H2.16654C0.969993 18.3793 0 19.4047 0 20.6696V30.2268C0 31.4918 0.969993 32.5172 2.16654 32.5172H25.9182C27.1148 32.5172 28.0848 31.4918 28.0848 30.2268V20.6696C28.0848 19.4047 27.1148 18.3793 25.9182 18.3793Z" fill="#D2321F"/>
<path d="M3.79901 29V21.7273H6.39134C6.95715 21.7273 7.4259 21.8303 7.79759 22.0362C8.16927 22.2422 8.44744 22.5239 8.6321 22.8814C8.81676 23.2365 8.90909 23.6366 8.90909 24.0817C8.90909 24.5291 8.81558 24.9316 8.62855 25.2891C8.44389 25.6442 8.16454 25.9259 7.79048 26.1342C7.4188 26.3402 6.95123 26.4432 6.38778 26.4432H4.60511V25.5128H6.28835C6.64583 25.5128 6.93584 25.4512 7.15838 25.3281C7.38092 25.2027 7.54427 25.0322 7.64844 24.8168C7.7526 24.6013 7.80469 24.3563 7.80469 24.0817C7.80469 23.8071 7.7526 23.5632 7.64844 23.3501C7.54427 23.1371 7.37973 22.9702 7.15483 22.8494C6.93229 22.7287 6.63873 22.6683 6.27415 22.6683H4.89631V29H3.79901ZM13.3499 29H10.9955V21.7273H13.4245C14.1371 21.7273 14.749 21.8729 15.2604 22.1641C15.7718 22.4529 16.1636 22.8684 16.4358 23.4105C16.7105 23.9503 16.8478 24.5978 16.8478 25.353C16.8478 26.1106 16.7093 26.7616 16.4323 27.3061C16.1577 27.8506 15.7599 28.2696 15.2391 28.5632C14.7183 28.8544 14.0885 29 13.3499 29ZM12.0928 28.0412H13.2895C13.8435 28.0412 14.304 27.937 14.6709 27.7287C15.0379 27.518 15.3125 27.2138 15.4948 26.8161C15.6771 26.416 15.7682 25.9283 15.7682 25.353C15.7682 24.7824 15.6771 24.2983 15.4948 23.9006C15.3149 23.5028 15.0462 23.201 14.6887 22.995C14.3312 22.7891 13.8873 22.6861 13.357 22.6861H12.0928V28.0412ZM19.0123 29V21.7273H23.5222V22.6719H20.1096V24.8878H23.1991V25.8288H20.1096V29H19.0123Z" fill="white"/>
</svg>
