<svg width="34" height="41" viewBox="0 0 34 41" fill="none" xmlns="http://www.w3.org/2000/svg">
<path d="M33.6668 8.69487L25.6426 0.212118C25.5829 0.144203 25.5104 0.0902499 25.4298 0.0537267C25.3492 0.0172036 25.2622 -0.00108084 25.1745 4.93754e-05H5.68903C5.00556 0.00376425 4.35108 0.292436 3.86779 0.803348C3.38449 1.31426 3.11142 2.00614 3.10791 2.72867V16.2587C3.10791 16.4461 3.17836 16.6259 3.30376 16.7585C3.42917 16.8911 3.59925 16.9655 3.7766 16.9655C3.95394 16.9655 4.12402 16.8911 4.24943 16.7585C4.37483 16.6259 4.44528 16.4461 4.44528 16.2587V2.72867C4.44528 2.37995 4.57632 2.04552 4.80957 1.79894C5.04282 1.55237 5.35917 1.41384 5.68903 1.41384H24.5058V9.18969C24.5058 9.37717 24.5763 9.55698 24.7017 9.68954C24.8271 9.82211 24.9972 9.89659 25.1745 9.89659H32.5301V38.2714C32.5301 38.6201 32.399 38.9545 32.1658 39.2011C31.9325 39.4477 31.6162 39.5862 31.2863 39.5862H5.68903C5.35917 39.5862 5.04282 39.4477 4.80957 39.2011C4.57632 38.9545 4.44528 38.6201 4.44528 38.2714V34.6379C4.44528 34.4505 4.37483 34.2707 4.24943 34.1381C4.12402 34.0055 3.95394 33.931 3.7766 33.931C3.59925 33.931 3.42917 34.0055 3.30376 34.1381C3.17836 34.2707 3.10791 34.4505 3.10791 34.6379V38.2714C3.11142 38.9939 3.38449 39.6858 3.86779 40.1967C4.35108 40.7076 5.00556 40.9963 5.68903 41H31.2863C31.9698 40.9963 32.6243 40.7076 33.1075 40.1967C33.5908 39.6858 33.8639 38.9939 33.8674 38.2714V9.18969C33.8685 9.09698 33.8512 9.00506 33.8166 8.91984C33.7821 8.83462 33.7311 8.75799 33.6668 8.69487ZM25.8432 2.41763L31.5805 8.4828H25.8432V2.41763Z" fill="#56AA76"/>
<path d="M26.3521 18.3793H2.60038C1.40383 18.3793 0.433838 19.4047 0.433838 20.6696V30.2268C0.433838 31.4918 1.40383 32.5172 2.60038 32.5172H26.3521C27.5486 32.5172 28.5186 31.4918 28.5186 30.2268V20.6696C28.5186 19.4047 27.5486 18.3793 26.3521 18.3793Z" fill="#56AA76"/>
<path d="M4.99634 21.8773L6.73639 24.7218H6.79321L8.53327 21.8773H9.80458L7.53895 25.5137L9.81878 29.15H8.54037L6.79321 26.3446H6.73639L4.98924 29.15H3.71083L6.02972 25.5137L3.72503 21.8773H4.99634ZM11.693 29.15V21.8773H12.7903V28.2054H16.0858V29.15H11.693ZM22.1042 23.7878C22.0663 23.4516 21.91 23.1912 21.6354 23.0066C21.3608 22.8195 21.0151 22.726 20.5985 22.726C20.3002 22.726 20.0421 22.7734 19.8243 22.8681C19.6065 22.9604 19.4372 23.0882 19.3165 23.2516C19.1981 23.4126 19.139 23.596 19.139 23.802C19.139 23.9748 19.1792 24.124 19.2597 24.2495C19.3426 24.3749 19.4503 24.4803 19.5828 24.5655C19.7178 24.6484 19.8622 24.7182 20.0161 24.775C20.17 24.8295 20.3179 24.8745 20.46 24.91L21.1702 25.0946C21.4022 25.1514 21.6401 25.2284 21.884 25.3255C22.1278 25.4225 22.3539 25.5504 22.5622 25.709C22.7706 25.8676 22.9387 26.0641 23.0665 26.2985C23.1967 26.5328 23.2618 26.8134 23.2618 27.1401C23.2618 27.552 23.1553 27.9178 22.9422 28.2374C22.7315 28.557 22.4249 28.8091 22.0225 28.9938C21.6224 29.1784 21.1382 29.2708 20.5701 29.2708C20.0256 29.2708 19.5544 29.1844 19.1567 29.0115C18.759 28.8387 18.4477 28.5937 18.2228 28.2764C17.9979 27.9568 17.8736 27.5781 17.8499 27.1401H18.9507C18.972 27.4029 19.0573 27.6219 19.2064 27.797C19.3579 27.9699 19.5509 28.0989 19.7853 28.1841C20.022 28.267 20.2812 28.3084 20.563 28.3084C20.8731 28.3084 21.1489 28.2599 21.3904 28.1628C21.6342 28.0634 21.826 27.9261 21.9657 27.7509C22.1053 27.5733 22.1752 27.3662 22.1752 27.1294C22.1752 26.914 22.1136 26.7376 21.9905 26.6003C21.8698 26.463 21.7052 26.3494 21.4969 26.2594C21.2909 26.1694 21.0577 26.0901 20.7973 26.0215L19.938 25.7871C19.3556 25.6285 18.8939 25.3953 18.553 25.0875C18.2145 24.7798 18.0452 24.3726 18.0452 23.8659C18.0452 23.4469 18.1588 23.0811 18.3861 22.7686C18.6134 22.4561 18.9211 22.2135 19.3094 22.0406C19.6977 21.8655 20.1356 21.7779 20.6233 21.7779C21.1158 21.7779 21.5502 21.8643 21.9266 22.0371C22.3054 22.2099 22.6037 22.4478 22.8215 22.7509C23.0393 23.0515 23.1529 23.3972 23.1624 23.7878H22.1042Z" fill="white"/>
</svg>
